CalSansText-Bold.ufo
<glyph name="ampersand" format="2">
  <advance width="700.0"/>
  <unicode hex="0026"/>
  <outline>
    <contour>
      <point x="285.0" y="-13.0" type="curve" smooth="yes"/>
      <point x="355.0" y="-13.0"/>
      <point x="422.0" y="20.0"/>
      <point x="450.0" y="49.0" type="curve" smooth="yes"/>
      <point x="538.0" y="135.0" type="line"/>
      <point x="646.0" y="230.0" type="line"/>
      <point x="563.0" y="313.0" type="line"/>
      <point x="454.0" y="215.0" type="line"/>
      <point x="378.0" y="151.0" type="line" smooth="yes"/>
      <point x="343.0" y="121.0"/>
      <point x="323.0" y="110.0"/>
      <point x="283.0" y="110.0" type="curve" smooth="yes"/>
      <point x="229.0" y="110.0"/>
      <point x="197.0" y="155.0"/>
      <point x="197.0" y="201.0" type="curve" smooth="yes"/>
      <point x="197.0" y="237.0"/>
      <point x="216.0" y="263.0"/>
      <point x="246.0" y="283.0" type="curve" smooth="yes"/>
      <point x="416.0" y="395.0" type="line" smooth="yes"/>
      <point x="490.0" y="444.0"/>
      <point x="503.0" y="496.0"/>
      <point x="503.0" y="544.0" type="curve" smooth="yes"/>
      <point x="503.0" y="652.0"/>
      <point x="412.0" y="713.0"/>
      <point x="314.0" y="713.0" type="curve" smooth="yes"/>
      <point x="209.0" y="713.0"/>
      <point x="123.0" y="639.0"/>
      <point x="123.0" y="544.0" type="curve" smooth="yes"/>
      <point x="123.0" y="483.0"/>
      <point x="141.0" y="454.0"/>
      <point x="177.0" y="411.0" type="curve" smooth="yes"/>
      <point x="435.0" y="101.0" type="line"/>
      <point x="453.0" y="93.0" type="line"/>
      <point x="521.0" y="0.0" type="line"/>
      <point x="675.0" y="0.0" type="line"/>
      <point x="281.0" y="485.0" type="line" smooth="yes"/>
      <point x="259.0" y="512.0"/>
      <point x="255.0" y="525.0"/>
      <point x="255.0" y="545.0" type="curve" smooth="yes"/>
      <point x="255.0" y="578.0"/>
      <point x="282.0" y="603.0"/>
      <point x="318.0" y="603.0" type="curve" smooth="yes"/>
      <point x="350.0" y="603.0"/>
      <point x="376.0" y="582.0"/>
      <point x="376.0" y="545.0" type="curve" smooth="yes"/>
      <point x="376.0" y="517.0"/>
      <point x="363.0" y="493.0"/>
      <point x="314.0" y="465.0" type="curve" smooth="yes"/>
      <point x="176.0" y="385.0" type="line" smooth="yes"/>
      <point x="113.0" y="348.0"/>
      <point x="60.0" y="284.0"/>
      <point x="60.0" y="194.0" type="curve" smooth="yes"/>
      <point x="60.0" y="83.0"/>
      <point x="141.0" y="-13.0"/>
    </contour>
  </outline>
</glyph>
<glyph name="hyphen" format="2">
  <advance width="386.0"/>
  <unicode hex="002D"/>
  <outline>
    <contour>
      <point x="50.0" y="210.0" type="line"/>
      <point x="336.0" y="210.0" type="line"/>
      <point x="336.0" y="341.0" type="line"/>
      <point x="50.0" y="341.0" type="line"/>
    </contour>
  </outline>
</glyph>
<glyph name="one" format="2">
  <advance width="382.0"/>
  <unicode hex="0031"/>
  <outline>
    <contour>
      <point x="164.0" y="0.0" type="line"/>
      <point x="299.0" y="0.0" type="line"/>
      <point x="299.0" y="713.0" type="line"/>
      <point x="15.0" y="594.0" type="line"/>
      <point x="67.0" y="470.0" type="line"/>
      <point x="160.0" y="509.0" type="line"/>
      <point x="164.0" y="505.0" type="line"/>
    </contour>
  </outline>
</glyph>
<glyph name="six" format="2">
  <advance width="613.0"/>
  <unicode hex="0036"/>
  <outline>
    <contour>
      <point x="318.0" y="-13.0" type="curve" smooth="yes"/>
      <point x="469.0" y="-13.0"/>
      <point x="576.0" y="88.0"/>
      <point x="576.0" y="227.0" type="curve" smooth="yes"/>
      <point x="576.0" y="380.0"/>
      <point x="464.0" y="478.0"/>
      <point x="319.0" y="451.0" type="curve"/>
      <point x="317.0" y="455.0" type="line"/>
      <point x="481.0" y="700.0" type="line"/>
      <point x="318.0" y="700.0" type="line"/>
      <point x="118.0" y="398.0" type="line" smooth="yes"/>
      <point x="69.0" y="324.0"/>
      <point x="62.0" y="278.0"/>
      <point x="62.0" y="227.0" type="curve" smooth="yes"/>
      <point x="62.0" y="88.0"/>
      <point x="167.0" y="-13.0"/>
    </contour>
    <contour>
      <point x="318.0" y="117.0" type="curve" smooth="yes"/>
      <point x="248.0" y="117.0"/>
      <point x="207.0" y="167.0"/>
      <point x="207.0" y="227.0" type="curve" smooth="yes"/>
      <point x="207.0" y="287.0"/>
      <point x="248.0" y="345.0"/>
      <point x="319.0" y="345.0" type="curve" smooth="yes"/>
      <point x="390.0" y="345.0"/>
      <point x="431.0" y="287.0"/>
      <point x="431.0" y="227.0" type="curve" smooth="yes"/>
      <point x="431.0" y="167.0"/>
      <point x="390.0" y="117.0"/>
    </contour>
  </outline>
</glyph>
<glyph name="eight" format="2">
  <advance width="588.0"/>
  <unicode hex="0038"/>
  <outline>
    <contour>
      <point x="294.0" y="-13.0" type="curve" smooth="yes"/>
      <point x="445.0" y="-13.0"/>
      <point x="536.0" y="75.0"/>
      <point x="536.0" y="191.0" type="curve" smooth="yes"/>
      <point x="536.0" y="281.0"/>
      <point x="491.0" y="339.0"/>
      <point x="430.0" y="367.0" type="curve"/>
      <point x="430.0" y="370.0" type="line"/>
      <point x="485.0" y="404.0"/>
      <point x="516.0" y="451.0"/>
      <point x="516.0" y="514.0" type="curve" smooth="yes"/>
      <point x="516.0" y="627.0"/>
      <point x="439.0" y="713.0"/>
      <point x="294.0" y="713.0" type="curve" smooth="yes"/>
      <point x="150.0" y="713.0"/>
      <point x="72.0" y="627.0"/>
      <point x="72.0" y="514.0" type="curve" smooth="yes"/>
      <point x="72.0" y="451.0"/>
      <point x="103.0" y="404.0"/>
      <point x="159.0" y="370.0" type="curve"/>
      <point x="159.0" y="367.0" type="line"/>
      <point x="97.0" y="339.0"/>
      <point x="52.0" y="281.0"/>
      <point x="52.0" y="191.0" type="curve" smooth="yes"/>
      <point x="52.0" y="75.0"/>
      <point x="144.0" y="-13.0"/>
    </contour>
    <contour>
      <point x="294.0" y="107.0" type="curve" smooth="yes"/>
      <point x="234.0" y="107.0"/>
      <point x="190.0" y="153.0"/>
      <point x="190.0" y="206.0" type="curve" smooth="yes"/>
      <point x="190.0" y="264.0"/>
      <point x="234.0" y="307.0"/>
      <point x="294.0" y="307.0" type="curve" smooth="yes"/>
      <point x="354.0" y="307.0"/>
      <point x="398.0" y="264.0"/>
      <point x="398.0" y="206.0" type="curve" smooth="yes"/>
      <point x="398.0" y="153.0"/>
      <point x="354.0" y="107.0"/>
    </contour>
    <contour>
      <point x="295.0" y="419.0" type="curve" smooth="yes"/>
      <point x="243.0" y="419.0"/>
      <point x="206.0" y="455.0"/>
      <point x="206.0" y="507.0" type="curve" smooth="yes"/>
      <point x="206.0" y="555.0"/>
      <point x="243.0" y="594.0"/>
      <point x="295.0" y="594.0" type="curve" smooth="yes"/>
      <point x="349.0" y="594.0"/>
      <point x="384.0" y="555.0"/>
      <point x="383.0" y="507.0" type="curve" smooth="yes"/>
      <point x="382.0" y="455.0"/>
      <point x="347.0" y="419.0"/>
    </contour>
  </outline>
</glyph>
<glyph name="equal" format="2">
  <advance width="596.0"/>
  <unicode hex="003D"/>
  <outline>
    <contour>
      <point x="65.0" y="367.0" type="line"/>
      <point x="517.0" y="367.0" type="line"/>
      <point x="517.0" y="477.0" type="line"/>
      <point x="65.0" y="477.0" type="line"/>
    </contour>
    <contour>
      <point x="65.0" y="154.0" type="line"/>
      <point x="517.0" y="154.0" type="line"/>
      <point x="517.0" y="264.0" type="line"/>
      <point x="65.0" y="264.0" type="line"/>
    </contour>
  </outline>
</glyph>
<glyph name="B" format="2">
  <advance width="638.0"/>
  <unicode hex="0042"/>
  <anchor x="332.0" y="0.0" name="bottom"/>
  <anchor x="328.0" y="700.0" name="top"/>
  <outline>
    <contour>
      <point x="80.0" y="0.0" type="line"/>
      <point x="341.0" y="0.0" type="line" smooth="yes"/>
      <point x="493.0" y="0.0"/>
      <point x="589.0" y="76.0"/>
      <point x="589.0" y="193.0" type="curve" smooth="yes"/>
      <point x="589.0" y="311.0"/>
      <point x="487.0" y="365.0"/>
      <point x="433.0" y="371.0" type="curve"/>
      <point x="433.0" y="377.0" type="line"/>
      <point x="486.0" y="388.0"/>
      <point x="550.0" y="421.0"/>
      <point x="550.0" y="516.0" type="curve" smooth="yes"/>
      <point x="550.0" y="625.0"/>
      <point x="468.0" y="700.0"/>
      <point x="316.0" y="700.0" type="curve" smooth="yes"/>
      <point x="80.0" y="700.0" type="line"/>
    </contour>
    <contour>
      <point x="220.0" y="135.0" type="line"/>
      <point x="220.0" y="289.0" type="line"/>
      <point x="338.0" y="289.0" type="line" smooth="yes"/>
      <point x="404.0" y="289.0"/>
      <point x="447.0" y="266.0"/>
      <point x="447.0" y="211.0" type="curve" smooth="yes"/>
      <point x="447.0" y="154.0"/>
      <point x="404.0" y="135.0"/>
      <point x="338.0" y="135.0" type="curve" smooth="yes"/>
    </contour>
    <contour>
      <point x="220.0" y="419.0" type="line"/>
      <point x="220.0" y="565.0" type="line"/>
      <point x="313.0" y="565.0" type="line" smooth="yes"/>
      <point x="379.0" y="565.0"/>
      <point x="408.0" y="545.0"/>
      <point x="408.0" y="493.0" type="curve" smooth="yes"/>
      <point x="408.0" y="441.0"/>
      <point x="379.0" y="419.0"/>
      <point x="313.0" y="419.0" type="curve" smooth="yes"/>
    </contour>
  </outline>
</glyph>
<glyph name="J" format="2">
  <advance width="484.0"/>
  <unicode hex="004A"/>
  <anchor x="193.0" y="0.0" name="bottom"/>
  <anchor x="256.0" y="0.0" name="ogonek"/>
  <anchor x="339.0" y="700.0" name="top"/>
  <outline>
    <contour>
      <point x="193.0" y="-13.0" type="curve" smooth="yes"/>
      <point x="333.0" y="-13.0"/>
      <point x="409.0" y="56.0"/>
      <point x="409.0" y="200.0" type="curve" smooth="yes"/>
      <point x="409.0" y="700.0" type="line"/>
      <point x="269.0" y="700.0" type="line"/>
      <point x="269.0" y="191.0" type="line" smooth="yes"/>
      <point x="269.0" y="145.0"/>
      <point x="237.0" y="117.0"/>
      <point x="197.0" y="117.0" type="curve" smooth="yes"/>
      <point x="162.0" y="117.0"/>
      <point x="136.0" y="136.0"/>
      <point x="120.0" y="157.0" type="curve"/>
      <point x="32.0" y="48.0" type="line"/>
      <point x="80.0" y="8.0"/>
      <point x="133.0" y="-13.0"/>
    </contour>
  </outline>
</glyph>
<glyph name="K" format="2">
  <advance width="648.0"/>
  <unicode hex="004B"/>
  <anchor x="323.0" y="0.0" name="bottom"/>
  <anchor x="462.0" y="0.0" name="ogonek"/>
  <anchor x="313.0" y="701.0" name="top"/>
  <outline>
    <contour>
      <point x="80.0" y="0.0" type="line"/>
      <point x="220.0" y="0.0" type="line"/>
      <point x="220.0" y="309.0" type="line"/>
      <point x="223.0" y="309.0" type="line"/>
      <point x="462.0" y="0.0" type="line"/>
      <point x="641.0" y="0.0" type="line"/>
      <point x="350.0" y="372.0" type="line"/>
      <point x="621.0" y="700.0" type="line"/>
      <point x="438.0" y="700.0" type="line"/>
      <point x="223.0" y="411.0" type="line"/>
      <point x="220.0" y="411.0" type="line"/>
      <point x="220.0" y="700.0" type="line"/>
      <point x="80.0" y="700.0" type="line"/>
    </contour>
  </outline>
</glyph>
<glyph name="M" format="2">
  <advance width="948.0"/>
  <unicode hex="004D"/>
  <anchor x="476.0" y="0.0" name="bottom"/>
  <anchor x="731.0" y="0.0" name="ogonek"/>
  <anchor x="475.0" y="700.0" name="top"/>
  <outline>
    <contour>
      <point x="80.0" y="0.0" type="line"/>
      <point x="217.0" y="0.0" type="line"/>
      <point x="217.0" y="283.0" type="line" smooth="yes"/>
      <point x="217.0" y="391.0"/>
      <point x="213.0" y="456.0"/>
      <point x="203.0" y="499.0" type="curve"/>
      <point x="207.0" y="499.0" type="line"/>
      <point x="440.0" y="0.0" type="line"/>
      <point x="508.0" y="0.0" type="line"/>
      <point x="741.0" y="499.0" type="line"/>
      <point x="745.0" y="499.0" type="line"/>
      <point x="735.0" y="459.0"/>
      <point x="731.0" y="394.0"/>
      <point x="731.0" y="283.0" type="curve" smooth="yes"/>
      <point x="731.0" y="0.0" type="line"/>
      <point x="868.0" y="0.0" type="line"/>
      <point x="868.0" y="700.0" type="line"/>
      <point x="701.0" y="700.0" type="line"/>
      <point x="554.0" y="391.0" type="line" smooth="yes"/>
      <point x="511.0" y="300.0"/>
      <point x="487.0" y="243.0"/>
      <point x="479.0" y="206.0" type="curve"/>
      <point x="475.0" y="206.0" type="line"/>
      <point x="467.0" y="243.0"/>
      <point x="442.0" y="300.0"/>
      <point x="399.0" y="391.0" type="curve" smooth="yes"/>
      <point x="253.0" y="700.0" type="line"/>
      <point x="80.0" y="700.0" type="line"/>
    </contour>
  </outline>
</glyph>
<glyph name="O" format="2">
  <advance width="794.0"/>
  <unicode hex="004F"/>
  <anchor x="390.0" y="0.0" name="bottom"/>
  <anchor x="383.0" y="338.0" name="center"/>
  <anchor x="490.0" y="0.0" name="ogonek"/>
  <anchor x="390.0" y="700.0" name="top"/>
  <anchor x="600.0" y="700.0" name="topright"/>
  <outline>
    <contour>
      <point x="397.0" y="-13.0" type="curve" smooth="yes"/>
      <point x="600.0" y="-13.0"/>
      <point x="752.0" y="142.0"/>
      <point x="752.0" y="349.0" type="curve" smooth="yes"/>
      <point x="752.0" y="557.0"/>
      <point x="600.0" y="713.0"/>
      <point x="397.0" y="713.0" type="curve" smooth="yes"/>
      <point x="194.0" y="713.0"/>
      <point x="42.0" y="557.0"/>
      <point x="42.0" y="349.0" type="curve" smooth="yes"/>
      <point x="42.0" y="142.0"/>
      <point x="194.0" y="-13.0"/>
    </contour>
    <contour>
      <point x="397.0" y="125.0" type="curve" smooth="yes"/>
      <point x="281.0" y="125.0"/>
      <point x="185.0" y="202.0"/>
      <point x="185.0" y="349.0" type="curve" smooth="yes"/>
      <point x="185.0" y="496.0"/>
      <point x="281.0" y="575.0"/>
      <point x="397.0" y="575.0" type="curve" smooth="yes"/>
      <point x="512.0" y="575.0"/>
      <point x="609.0" y="496.0"/>
      <point x="609.0" y="349.0" type="curve" smooth="yes"/>
      <point x="609.0" y="202.0"/>
      <point x="512.0" y="125.0"/>
    </contour>
  </outline>
</glyph>
<glyph name="Y" format="2">
  <advance width="622.0"/>
  <unicode hex="0059"/>
  <anchor x="313.0" y="0.0" name="bottom"/>
  <anchor x="313.0" y="700.0" name="top"/>
  <anchor x="20.0" y="700.0" name="topleft"/>
  <outline>
    <contour>
      <point x="241.0" y="0.0" type="line"/>
      <point x="381.0" y="0.0" type="line"/>
      <point x="381.0" y="278.0" type="line"/>
      <point x="618.0" y="700.0" type="line"/>
      <point x="465.0" y="700.0" type="line"/>
      <point x="381.0" y="539.0" type="line" smooth="yes"/>
      <point x="339.0" y="460.0"/>
      <point x="321.0" y="407.0"/>
      <point x="317.0" y="395.0" type="curve"/>
      <point x="314.0" y="395.0" type="line"/>
      <point x="311.0" y="407.0"/>
      <point x="292.0" y="455.0"/>
      <point x="247.0" y="538.0" type="curve" smooth="yes"/>
      <point x="158.0" y="700.0" type="line"/>
      <point x="4.0" y="700.0" type="line"/>
      <point x="241.0" y="281.0" type="line"/>
    </contour>
  </outline>
</glyph>
<glyph name="p" format="2">
  <advance width="654.0"/>
  <unicode hex="0070"/>
  <anchor x="373.0" y="0.0" name="bottom"/>
  <anchor x="444.0" y="0.0" name="ogonek"/>
  <anchor x="355.0" y="505.0" name="top"/>
  <outline>
    <contour>
      <point x="364.0" y="-13.0" type="curve" smooth="yes"/>
      <point x="513.0" y="-13.0"/>
      <point x="614.0" y="112.0"/>
      <point x="614.0" y="252.0" type="curve" smooth="yes"/>
      <point x="614.0" y="393.0"/>
      <point x="513.0" y="518.0"/>
      <point x="364.0" y="518.0" type="curve" smooth="yes"/>
      <point x="292.0" y="518.0"/>
      <point x="226.0" y="484.0"/>
      <point x="207.0" y="429.0" type="curve"/>
      <point x="201.0" y="429.0" type="line"/>
      <point x="201.0" y="505.0" type="line"/>
      <point x="70.0" y="505.0" type="line"/>
      <point x="70.0" y="-220.0" type="line"/>
      <point x="205.0" y="-220.0" type="line"/>
      <point x="205.0" y="74.0" type="line"/>
      <point x="211.0" y="74.0" type="line"/>
      <point x="230.0" y="21.0"/>
      <point x="296.0" y="-13.0"/>
    </contour>
    <contour>
      <point x="342.0" y="110.0" type="curve" smooth="yes"/>
      <point x="263.0" y="110.0"/>
      <point x="205.0" y="171.0"/>
      <point x="205.0" y="252.0" type="curve" smooth="yes"/>
      <point x="205.0" y="334.0"/>
      <point x="263.0" y="395.0"/>
      <point x="342.0" y="395.0" type="curve" smooth="yes"/>
      <point x="421.0" y="395.0"/>
      <point x="479.0" y="334.0"/>
      <point x="479.0" y="253.0" type="curve" smooth="yes"/>
      <point x="479.0" y="171.0"/>
      <point x="421.0" y="110.0"/>
    </contour>
  </outline>
</glyph>
<glyph name="braceleft" format="2">
  <advance width="445.0"/>
  <unicode hex="007B"/>
  <outline>
    <contour>
      <point x="324.0" y="-224.0" type="curve" smooth="yes"/>
      <point x="340.0" y="-224.0"/>
      <point x="361.0" y="-223.0"/>
      <point x="385.0" y="-220.0" type="curve"/>
      <point x="385.0" y="-113.0" type="line"/>
      <point x="379.0" y="-114.0"/>
      <point x="372.0" y="-115.0"/>
      <point x="366.0" y="-115.0" type="curve" smooth="yes"/>
      <point x="324.0" y="-115.0"/>
      <point x="301.0" y="-88.0"/>
      <point x="301.0" y="-55.0" type="curve" smooth="yes"/>
      <point x="301.0" y="127.0" type="line" smooth="yes"/>
      <point x="301.0" y="241.0"/>
      <point x="208.0" y="270.0"/>
      <point x="190.0" y="272.0" type="curve"/>
      <point x="190.0" y="279.0" type="line"/>
      <point x="208.0" y="281.0"/>
      <point x="301.0" y="310.0"/>
      <point x="301.0" y="424.0" type="curve" smooth="yes"/>
      <point x="301.0" y="585.0" type="line" smooth="yes"/>
      <point x="301.0" y="618.0"/>
      <point x="324.0" y="645.0"/>
      <point x="366.0" y="645.0" type="curve" smooth="yes"/>
      <point x="372.0" y="645.0"/>
      <point x="379.0" y="644.0"/>
      <point x="385.0" y="643.0" type="curve"/>
      <point x="385.0" y="750.0" type="line"/>
      <point x="361.0" y="753.0"/>
      <point x="340.0" y="754.0"/>
      <point x="324.0" y="754.0" type="curve" smooth="yes"/>
      <point x="222.0" y="754.0"/>
      <point x="172.0" y="686.0"/>
      <point x="172.0" y="593.0" type="curve" smooth="yes"/>
      <point x="172.0" y="428.0" type="line" smooth="yes"/>
      <point x="172.0" y="360.0"/>
      <point x="145.0" y="346.0"/>
      <point x="65.0" y="340.0" type="curve"/>
      <point x="65.0" y="210.0" type="line"/>
      <point x="142.0" y="204.0"/>
      <point x="172.0" y="192.0"/>
      <point x="172.0" y="122.0" type="curve" smooth="yes"/>
      <point x="172.0" y="-63.0" type="line" smooth="yes"/>
      <point x="172.0" y="-156.0"/>
      <point x="222.0" y="-224.0"/>
    </contour>
  </outline>
</glyph>
<glyph name="kgreenlandic" format="2">
  <advance width="578.0"/>
  <unicode hex="0138"/>
  <outline>
    <contour>
      <point x="70.0" y="0.0" type="line"/>
      <point x="205.0" y="0.0" type="line"/>
      <point x="205.0" y="236.0" type="line"/>
      <point x="210.0" y="236.0" type="line"/>
      <point x="394.0" y="0.0" type="line"/>
      <point x="553.0" y="0.0" type="line"/>
      <point x="344.0" y="274.0" type="line"/>
      <point x="552.0" y="505.0" type="line"/>
      <point x="380.0" y="505.0" type="line"/>
      <point x="210.0" y="296.0" type="line"/>
      <point x="205.0" y="296.0" type="line"/>
      <point x="205.0" y="505.0" type="line"/>
      <point x="70.0" y="505.0" type="line"/>
    </contour>
  </outline>
</glyph>
<glyph name="eng" format="2">
  <advance width="605.0"/>
  <unicode hex="014B"/>
  <outline>
    <contour>
      <point x="70.0" y="0.0" type="line"/>
      <point x="205.0" y="0.0" type="line"/>
      <point x="205.0" y="290.0" type="line" smooth="yes"/>
      <point x="205.0" y="357.0"/>
      <point x="243.0" y="399.0"/>
      <point x="303.0" y="399.0" type="curve" smooth="yes"/>
      <point x="366.0" y="399.0"/>
      <point x="405.0" y="357.0"/>
      <point x="405.0" y="290.0" type="curve" smooth="yes"/>
      <point x="405.0" y="-60.0" type="line" smooth="yes"/>
      <point x="405.0" y="-93.0"/>
      <point x="389.0" y="-110.0"/>
      <point x="359.0" y="-110.0" type="curve" smooth="yes"/>
      <point x="345.0" y="-110.0"/>
      <point x="332.0" y="-108.0"/>
      <point x="319.0" y="-103.0" type="curve"/>
      <point x="300.0" y="-223.0" type="line"/>
      <point x="325.0" y="-230.0"/>
      <point x="351.0" y="-233.0"/>
      <point x="381.0" y="-233.0" type="curve" smooth="yes"/>
      <point x="484.0" y="-233.0"/>
      <point x="540.0" y="-170.0"/>
      <point x="540.0" y="-67.0" type="curve" smooth="yes"/>
      <point x="540.0" y="323.0" type="line" smooth="yes"/>
      <point x="540.0" y="434.0"/>
      <point x="454.0" y="517.0"/>
      <point x="357.0" y="517.0" type="curve" smooth="yes"/>
      <point x="281.0" y="517.0"/>
      <point x="230.0" y="477.0"/>
      <point x="207.0" y="440.0" type="curve"/>
      <point x="201.0" y="440.0" type="line"/>
      <point x="201.0" y="505.0" type="line"/>
      <point x="70.0" y="505.0" type="line"/>
    </contour>
  </outline>
</glyph>
<glyph name="OE" format="2">
  <advance width="1090.0"/>
  <unicode hex="0152"/>
  <anchor x="609.0" y="0.0" name="bottom"/>
  <anchor x="928.0" y="0.0" name="ogonek"/>
  <anchor x="609.0" y="700.0" name="top"/>
  <outline>
    <contour>
      <point x="655.0" y="150.0" type="curve"/>
      <point x="588.0" y="69.0" type="line"/>
      <point x="612.0" y="69.0" type="line"/>
      <point x="620.0" y="630.0" type="line"/>
      <point x="589.0" y="630.0" type="line"/>
      <point x="655.0" y="549.0" type="line"/>
      <point x="613.0" y="648.0"/>
      <point x="529.0" y="713.0"/>
      <point x="392.0" y="713.0" type="curve" smooth="yes"/>
      <point x="194.0" y="713.0"/>
      <point x="42.0" y="550.0"/>
      <point x="42.0" y="349.0" type="curve" smooth="yes"/>
      <point x="42.0" y="149.0"/>
      <point x="194.0" y="-13.0"/>
      <point x="392.0" y="-13.0" type="curve" smooth="yes"/>
      <point x="529.0" y="-13.0"/>
      <point x="613.0" y="52.0"/>
    </contour>
    <contour>
      <point x="397.0" y="125.0" type="curve" smooth="yes"/>
      <point x="281.0" y="125.0"/>
      <point x="185.0" y="202.0"/>
      <point x="185.0" y="349.0" type="curve" smooth="yes"/>
      <point x="185.0" y="496.0"/>
      <point x="281.0" y="575.0"/>
      <point x="397.0" y="575.0" type="curve" smooth="yes"/>
      <point x="512.0" y="575.0"/>
      <point x="609.0" y="496.0"/>
      <point x="609.0" y="349.0" type="curve" smooth="yes"/>
      <point x="609.0" y="202.0"/>
      <point x="512.0" y="125.0"/>
    </contour>
    <component base="E" xOffset="529.0"/>
  </outline>
</glyph>
<glyph name="Schwa" format="2">
  <advance width="776.0"/>
  <unicode hex="018F"/>
  <outline>
    <contour>
      <point x="379.0" y="-13.0" type="curve" smooth="yes"/>
      <point x="587.0" y="-13.0"/>
      <point x="734.0" y="149.0"/>
      <point x="734.0" y="349.0" type="curve" smooth="yes"/>
      <point x="734.0" y="550.0"/>
      <point x="587.0" y="713.0"/>
      <point x="379.0" y="713.0" type="curve" smooth="yes"/>
      <point x="259.0" y="713.0"/>
      <point x="169.0" y="676.0"/>
      <point x="80.0" y="590.0" type="curve"/>
      <point x="182.0" y="493.0" type="line"/>
      <point x="236.0" y="550.0"/>
      <point x="294.0" y="575.0"/>
      <point x="376.0" y="575.0" type="curve" smooth="yes"/>
      <point x="502.0" y="575.0"/>
      <point x="589.0" y="477.0"/>
      <point x="589.0" y="349.0" type="curve" smooth="yes"/>
      <point x="589.0" y="221.0"/>
      <point x="511.0" y="125.0"/>
      <point x="376.0" y="125.0" type="curve" smooth="yes"/>
      <point x="274.0" y="125.0"/>
      <point x="197.0" y="181.0"/>
      <point x="188.0" y="285.0" type="curve"/>
      <point x="159.0" y="266.0" type="line"/>
      <point x="653.0" y="266.0" type="line"/>
      <point x="653.0" y="396.0" type="line"/>
      <point x="47.0" y="396.0" type="line"/>
      <point x="44.0" y="375.0"/>
      <point x="42.0" y="344.0"/>
      <point x="42.0" y="322.0" type="curve" smooth="yes"/>
      <point x="42.0" y="128.0"/>
      <point x="169.0" y="-13.0"/>
    </contour>
  </outline>
</glyph>
<glyph name="horncomb" format="2">
  <unicode hex="031B"/>
  <anchor x="180.0" y="505.0" name="_topright"/>
  <outline>
    <contour>
      <point x="183.0" y="407.0" type="curve" smooth="yes"/>
      <point x="249.0" y="407.0"/>
      <point x="323.0" y="470.0"/>
      <point x="323.0" y="561.0" type="curve" smooth="yes"/>
      <point x="323.0" y="582.0"/>
      <point x="318.0" y="611.0"/>
      <point x="313.0" y="626.0" type="curve"/>
      <point x="199.0" y="626.0" type="line"/>
      <point x="205.0" y="609.0"/>
      <point x="208.0" y="591.0"/>
      <point x="208.0" y="576.0" type="curve" smooth="yes"/>
      <point x="209.0" y="534.0"/>
      <point x="194.0" y="505.0"/>
      <point x="138.0" y="505.0" type="curve" smooth="yes"/>
      <point x="99.0" y="505.0"/>
      <point x="70.0" y="518.0"/>
      <point x="15.0" y="518.0" type="curve"/>
      <point x="2.0" y="422.0" type="line"/>
      <point x="101.0" y="422.0"/>
      <point x="96.0" y="407.0"/>
    </contour>
  </outline>
</glyph>
<glyph name="cedillacomb" format="2">
  <unicode hex="0327"/>
  <anchor x="-8.0" y="0.0" name="_bottom"/>
  <anchor x="55.0" y="-207.0" name="bottom"/>
  <outline>
    <contour>
      <point x="-27.0" y="-220.0" type="curve" smooth="yes"/>
      <point x="23.0" y="-220.0"/>
      <point x="74.0" y="-190.0"/>
      <point x="74.0" y="-127.0" type="curve" smooth="yes"/>
      <point x="74.0" y="-84.0"/>
      <point x="46.0" y="-40.0"/>
      <point x="-16.0" y="-48.0" type="curve"/>
      <point x="16.0" y="-62.0" type="line"/>
      <point x="47.0" y="0.0" type="line"/>
      <point x="-8.0" y="16.0" type="line"/>
      <point x="-56.0" y="-96.0" type="line"/>
      <point x="-52.0" y="-99.0" type="line"/>
      <point x="-46.0" y="-97.0"/>
      <point x="-40.0" y="-96.0"/>
      <point x="-30.0" y="-96.0" type="curve" smooth="yes"/>
      <point x="-18.0" y="-96.0"/>
      <point x="-5.0" y="-104.0"/>
      <point x="-5.0" y="-119.0" type="curve" smooth="yes"/>
      <point x="-5.0" y="-140.0"/>
      <point x="-22.0" y="-147.0"/>
      <point x="-36.0" y="-147.0" type="curve" smooth="yes"/>
      <point x="-51.0" y="-147.0"/>
      <point x="-64.0" y="-140.0"/>
      <point x="-75.0" y="-130.0" type="curve"/>
      <point x="-121.0" y="-188.0" type="line"/>
      <point x="-83.0" y="-216.0"/>
      <point x="-65.0" y="-220.0"/>
    </contour>
  </outline>
</glyph>
<glyph name="strokeshortcomb" format="2">
  <unicode hex="0335"/>
  <anchor x="0.0" y="351.0" name="_bar"/>
  <outline>
    <contour>
      <point x="-181.0" y="282.0" type="line"/>
      <point x="182.0" y="282.0" type="line"/>
      <point x="182.0" y="402.0" type="line"/>
      <point x="-181.0" y="402.0" type="line"/>
    </contour>
  </outline>
</glyph>
<glyph name="cedi" format="2">
  <advance width="659.0"/>
  <unicode hex="20B5"/>
  <outline>
    <contour>
      <point x="377.0" y="27.0" type="curve" smooth="yes"/>
      <point x="499.0" y="27.0"/>
      <point x="584.0" y="76.0"/>
      <point x="637.0" y="140.0" type="curve"/>
      <point x="534.0" y="230.0" type="line"/>
      <point x="495.0" y="187.0"/>
      <point x="439.0" y="165.0"/>
      <point x="380.0" y="165.0" type="curve" smooth="yes"/>
      <point x="270.0" y="165.0"/>
      <point x="185.0" y="221.0"/>
      <point x="185.0" y="349.0" type="curve" smooth="yes"/>
      <point x="185.0" y="477.0"/>
      <point x="270.0" y="535.0"/>
      <point x="377.0" y="535.0" type="curve" smooth="yes"/>
      <point x="449.0" y="535.0"/>
      <point x="494.0" y="510.0"/>
      <point x="536.0" y="466.0" type="curve"/>
      <point x="636.0" y="561.0" type="line"/>
      <point x="570.0" y="639.0"/>
      <point x="478.0" y="673.0"/>
      <point x="377.0" y="673.0" type="curve" smooth="yes"/>
      <point x="191.0" y="673.0"/>
      <point x="42.0" y="550.0"/>
      <point x="42.0" y="349.0" type="curve" smooth="yes"/>
      <point x="42.0" y="149.0"/>
      <point x="199.0" y="27.0"/>
    </contour>
    <contour>
      <point x="332.0" y="-69.0" type="line"/>
      <point x="422.0" y="-69.0" type="line"/>
      <point x="422.0" y="775.0" type="line"/>
      <point x="332.0" y="775.0" type="line"/>
    </contour>
  </outline>
</glyph>
<glyph name="minus" format="2">
  <advance width="596.0"/>
  <unicode hex="2212"/>
  <outline>
    <contour>
      <point x="65.0" y="261.0" type="line"/>
      <point x="517.0" y="261.0" type="line"/>
      <point x="517.0" y="371.0" type="line"/>
      <point x="65.0" y="371.0" type="line"/>
    </contour>
  </outline>
</glyph>
<glyph name="approxequal" format="2">
  <advance width="596.0"/>
  <unicode hex="2248"/>
  <outline>
    <contour>
      <point x="65.0" y="154.0" type="line"/>
      <point x="140.0" y="184.0"/>
      <point x="216.0" y="184.0"/>
      <point x="291.0" y="154.0" type="curve" smooth="yes"/>
      <point x="363.0" y="125.0"/>
      <point x="442.0" y="124.0"/>
      <point x="517.0" y="154.0" type="curve"/>
      <point x="517.0" y="264.0" type="line"/>
      <point x="442.0" y="234.0"/>
      <point x="363.0" y="235.0"/>
      <point x="291.0" y="264.0" type="curve" smooth="yes"/>
      <point x="216.0" y="294.0"/>
      <point x="140.0" y="294.0"/>
      <point x="65.0" y="264.0" type="curve"/>
    </contour>
    <contour>
      <point x="65.0" y="367.0" type="line"/>
      <point x="140.0" y="397.0"/>
      <point x="216.0" y="397.0"/>
      <point x="291.0" y="367.0" type="curve" smooth="yes"/>
      <point x="363.0" y="338.0"/>
      <point x="442.0" y="337.0"/>
      <point x="517.0" y="367.0" type="curve"/>
      <point x="517.0" y="477.0" type="line"/>
      <point x="442.0" y="447.0"/>
      <point x="363.0" y="448.0"/>
      <point x="291.0" y="477.0" type="curve" smooth="yes"/>
      <point x="216.0" y="507.0"/>
      <point x="140.0" y="507.0"/>
      <point x="65.0" y="477.0" type="curve"/>
    </contour>
  </outline>
</glyph>
<glyph name="upBlackSmallTriangle" format="2">
  <advance width="397.0"/>
  <unicode hex="25B4"/>
  <outline>
    <contour>
      <point x="45.0" y="229.0" type="line"/>
      <point x="352.0" y="229.0" type="line"/>
      <point x="198.0" y="495.0" type="line"/>
    </contour>
  </outline>
</glyph>
<glyph name="upWhiteSmallTriangle" format="2">
  <advance width="397.0"/>
  <unicode hex="25B5"/>
  <outline>
    <contour>
      <point x="45.0" y="229.0" type="line"/>
      <point x="352.0" y="229.0" type="line"/>
      <point x="198.0" y="495.0" type="line"/>
    </contour>
    <contour>
      <point x="142.0" y="285.0" type="line"/>
      <point x="198.0" y="390.0" type="line"/>
      <point x="254.0" y="285.0" type="line"/>
    </contour>
  </outline>
</glyph>
<glyph name="heavyCheckMark" format="2">
  <advance width="600.0"/>
  <unicode hex="2714"/>
  <outline>
    <contour>
      <point x="186.0" y="157.0" type="curve" smooth="yes"/>
      <point x="209.0" y="138.0"/>
      <point x="236.0" y="120.0"/>
      <point x="285.0" y="157.0" type="curve" smooth="yes"/>
      <point x="362.0" y="215.0"/>
      <point x="501.0" y="463.0"/>
      <point x="536.0" y="568.0" type="curve" smooth="yes"/>
      <point x="549.0" y="605.0"/>
      <point x="512.0" y="627.0"/>
      <point x="491.0" y="596.0" type="curve" smooth="yes"/>
      <point x="397.0" y="451.0"/>
      <point x="323.0" y="331.0"/>
      <point x="273.0" y="273.0" type="curve" smooth="yes"/>
      <point x="259.0" y="257.0"/>
      <point x="247.0" y="258.0"/>
      <point x="230.0" y="274.0" type="curve" smooth="yes"/>
      <point x="198.0" y="304.0"/>
      <point x="176.0" y="331.0"/>
      <point x="151.0" y="381.0" type="curve" smooth="yes"/>
      <point x="136.0" y="411.0"/>
      <point x="102.0" y="406.0"/>
      <point x="77.0" y="369.0" type="curve" smooth="yes"/>
      <point x="59.0" y="344.0"/>
      <point x="53.0" y="308.0"/>
      <point x="64.0" y="290.0" type="curve" smooth="yes"/>
      <point x="89.0" y="246.0"/>
      <point x="139.0" y="196.0"/>
    </contour>
  </outline>
</glyph>
<glyph name="ballotX" format="2">
  <advance width="600.0"/>
  <unicode hex="2717"/>
  <outline>
    <contour>
      <point x="431.0" y="144.0" type="line"/>
      <point x="508.0" y="219.0" type="line"/>
      <point x="171.0" y="556.0" type="line"/>
      <point x="94.0" y="480.0" type="line"/>
    </contour>
    <contour>
      <point x="170.0" y="142.0" type="line"/>
      <point x="506.0" y="480.0" type="line"/>
      <point x="431.0" y="557.0" type="line"/>
      <point x="95.0" y="219.0" type="line"/>
    </contour>
  </outline>
</glyph>
<glyph name="Eng.ss10" format="2">
  <advance width="776.0"/>
  <anchor x="395.0" y="0.0" name="bottom"/>
  <anchor x="676.0" y="0.0" name="ogonek"/>
  <anchor x="386.0" y="700.0" name="top"/>
  <outline>
    <contour>
      <point x="566.0" y="195.0" type="line"/>
      <point x="566.0" y="-220.0" type="line"/>
      <point x="696.0" y="-220.0" type="line"/>
      <point x="696.0" y="0.0" type="line"/>
    </contour>
    <component base="N"/>
  </outline>
</glyph>
<glyph name="circumflexcomb.case" format="2">
  <anchor x="0.0" y="700.0" name="_top"/>
  <anchor x="0.0" y="835.0" name="top"/>
  <outline>
    <contour>
      <point x="-160.0" y="740.0" type="line"/>
      <point x="-49.0" y="740.0" type="line"/>
      <point x="0.0" y="794.0" type="line"/>
      <point x="3.0" y="794.0" type="line"/>
      <point x="51.0" y="740.0" type="line"/>
      <point x="160.0" y="740.0" type="line"/>
      <point x="56.0" y="849.0" type="line"/>
      <point x="-53.0" y="849.0" type="line"/>
    </contour>
  </outline>
</glyph>
<glyph name="euro.ss10" format="2">
  <advance width="557.0"/>
  <outline>
    <contour>
      <point x="365.0" y="27.0" type="curve" smooth="yes"/>
      <point x="420.0" y="27.0"/>
      <point x="468.0" y="35.0"/>
      <point x="514.0" y="59.0" type="curve"/>
      <point x="525.0" y="218.0" type="line"/>
      <point x="481.0" y="181.0"/>
      <point x="429.0" y="165.0"/>
      <point x="367.0" y="165.0" type="curve" smooth="yes"/>
      <point x="296.0" y="165.0"/>
      <point x="219.0" y="188.0"/>
      <point x="195.0" y="284.0" type="curve"/>
      <point x="188.0" y="301.0" type="line"/>
      <point x="182.0" y="333.0"/>
      <point x="181.0" y="366.0"/>
      <point x="187.0" y="398.0" type="curve"/>
      <point x="194.0" y="414.0" type="line"/>
      <point x="217.0" y="510.0"/>
      <point x="291.0" y="535.0"/>
      <point x="365.0" y="535.0" type="curve" smooth="yes"/>
      <point x="427.0" y="535.0"/>
      <point x="481.0" y="516.0"/>
      <point x="524.0" y="470.0" type="curve"/>
      <point x="524.0" y="633.0" type="line"/>
      <point x="484.0" y="659.0"/>
      <point x="426.0" y="673.0"/>
      <point x="365.0" y="673.0" type="curve" smooth="yes"/>
      <point x="189.0" y="673.0"/>
      <point x="42.0" y="550.0"/>
      <point x="42.0" y="349.0" type="curve" smooth="yes"/>
      <point x="42.0" y="149.0"/>
      <point x="197.0" y="27.0"/>
    </contour>
    <contour>
      <point x="114.0" y="237.0" type="line"/>
      <point x="457.0" y="237.0" type="line"/>
      <point x="457.0" y="323.0" type="line"/>
      <point x="114.0" y="323.0" type="line"/>
    </contour>
    <contour>
      <point x="114.0" y="378.0" type="line"/>
      <point x="457.0" y="378.0" type="line"/>
      <point x="457.0" y="464.0" type="line"/>
      <point x="114.0" y="464.0" type="line"/>
    </contour>
  </outline>
</glyph>
<glyph name="f_f_l" format="2">
  <advance width="974.0"/>
  <anchor x="180.0" y="0.0" name="bottom_1"/>
  <anchor x="279.0" y="740.0" name="top_1"/>
  <anchor x="508.0" y="0.0" name="bottom_2"/>
  <anchor x="607.0" y="740.0" name="top_2"/>
  <anchor x="837.0" y="0.0" name="bottom_3"/>
  <anchor x="837.0" y="393.0" name="center_3"/>
  <anchor x="904.0" y="0.0" name="ogonek_3"/>
  <anchor x="837.0" y="740.0" name="top_3"/>
  <anchor x="954.0" y="740.0" name="topright_3"/>
  <anchor x="392.0" y="0.0" name="caret_1"/>
  <anchor x="720.0" y="0.0" name="caret_2"/>
  <outline>
    <contour>
      <point x="509.0" y="385.0" type="line"/>
      <point x="894.0" y="385.0" type="line"/>
      <point x="904.0" y="505.0" type="line"/>
      <point x="509.0" y="505.0" type="line"/>
    </contour>
    <component base="f"/>
    <component base="f" xOffset="328.0"/>
    <component base="l" xOffset="699.0"/>
  </outline>
</glyph>
<glyph name="f_f_l.ss11" format="2">
  <advance width="974.0"/>
  <anchor x="392.0" y="0.0" name="caret_1"/>
  <anchor x="720.0" y="0.0" name="caret_2"/>
  <outline>
    <contour>
      <point x="113.0" y="0.0" type="line"/>
      <point x="248.0" y="0.0" type="line"/>
      <point x="248.0" y="547.0" type="line" smooth="yes"/>
      <point x="248.0" y="598.0"/>
      <point x="286.0" y="630.0"/>
      <point x="347.0" y="630.0" type="curve" smooth="yes"/>
      <point x="405.0" y="630.0"/>
      <point x="441.0" y="601.0"/>
      <point x="441.0" y="554.0" type="curve" smooth="yes"/>
      <point x="441.0" y="0.0" type="line"/>
      <point x="576.0" y="0.0" type="line"/>
      <point x="576.0" y="547.0" type="line" smooth="yes"/>
      <point x="576.0" y="598.0"/>
      <point x="614.0" y="630.0"/>
      <point x="675.0" y="630.0" type="curve" smooth="yes"/>
      <point x="733.0" y="630.0"/>
      <point x="769.0" y="601.0"/>
      <point x="769.0" y="554.0" type="curve" smooth="yes"/>
      <point x="769.0" y="0.0" type="line"/>
      <point x="904.0" y="0.0" type="line"/>
      <point x="904.0" y="554.0" type="line" smooth="yes"/>
      <point x="904.0" y="668.0"/>
      <point x="811.0" y="753.0"/>
      <point x="675.0" y="753.0" type="curve" smooth="yes"/>
      <point x="614.0" y="753.0"/>
      <point x="547.0" y="725.0"/>
      <point x="513.0" y="675.0" type="curve"/>
      <point x="507.0" y="675.0" type="line"/>
      <point x="473.0" y="726.0"/>
      <point x="407.0" y="753.0"/>
      <point x="347.0" y="753.0" type="curve" smooth="yes"/>
      <point x="210.0" y="753.0"/>
      <point x="113.0" y="668.0"/>
      <point x="113.0" y="554.0" type="curve" smooth="yes"/>
    </contour>
    <contour>
      <point x="20.0" y="385.0" type="line"/>
      <point x="715.0" y="385.0" type="line"/>
      <point x="715.0" y="505.0" type="line"/>
      <point x="20.0" y="505.0" type="line"/>
    </contour>
  </outline>
</glyph>
<glyph name="five.numr" format="2">
  <advance width="345.0"/>
  <outline>
    <contour>
      <point x="149.0" y="308.0" type="curve" smooth="yes"/>
      <point x="232.0" y="308.0"/>
      <point x="300.0" y="363.0"/>
      <point x="300.0" y="440.0" type="curve" smooth="yes"/>
      <point x="300.0" y="506.0"/>
      <point x="253.0" y="572.0"/>
      <point x="175.0" y="572.0" type="curve" smooth="yes"/>
      <point x="164.0" y="572.0"/>
      <point x="157.0" y="571.0"/>
      <point x="148.0" y="568.0" type="curve"/>
      <point x="147.0" y="569.0" type="line"/>
      <point x="169.0" y="666.0" type="line"/>
      <point x="117.0" y="626.0" type="line"/>
      <point x="270.0" y="626.0" type="line"/>
      <point x="270.0" y="700.0" type="line"/>
      <point x="95.0" y="700.0" type="line"/>
      <point x="43.0" y="472.0" type="line"/>
      <point x="77.0" y="491.0"/>
      <point x="105.0" y="499.0"/>
      <point x="146.0" y="499.0" type="curve" smooth="yes"/>
      <point x="191.0" y="499.0"/>
      <point x="213.0" y="475.0"/>
      <point x="213.0" y="440.0" type="curve" smooth="yes"/>
      <point x="213.0" y="407.0"/>
      <point x="188.0" y="384.0"/>
      <point x="149.0" y="384.0" type="curve" smooth="yes"/>
      <point x="117.0" y="384.0"/>
      <point x="97.0" y="395.0"/>
      <point x="73.0" y="419.0" type="curve"/>
      <point x="25.0" y="361.0" type="line"/>
      <point x="62.0" y="323.0"/>
      <point x="99.0" y="308.0"/>
    </contour>
  </outline>
</glyph>
<glyph name="guarani.tf" format="2">
  <advance width="596.0"/>
  <outline>
    <contour>
      <point x="304.0" y="12.0" type="curve" smooth="yes"/>
      <point x="493.0" y="12.0"/>
      <point x="594.0" y="143.0"/>
      <point x="594.0" y="323.0" type="curve" smooth="yes"/>
      <point x="594.0" y="344.0"/>
      <point x="592.0" y="373.0"/>
      <point x="589.0" y="392.0" type="curve"/>
      <point x="272.0" y="392.0" type="line"/>
      <point x="272.0" y="278.0" type="line"/>
      <point x="483.0" y="278.0" type="line"/>
      <point x="455.0" y="289.0" type="line"/>
      <point x="446.0" y="192.0"/>
      <point x="393.0" y="140.0"/>
      <point x="307.0" y="140.0" type="curve" smooth="yes"/>
      <point x="198.0" y="140.0"/>
      <point x="144.0" y="230.0"/>
      <point x="144.0" y="349.0" type="curve" smooth="yes"/>
      <point x="144.0" y="468.0"/>
      <point x="207.0" y="559.0"/>
      <point x="307.0" y="559.0" type="curve" smooth="yes"/>
      <point x="369.0" y="559.0"/>
      <point x="388.0" y="544.0"/>
      <point x="430.0" y="496.0" type="curve"/>
      <point x="529.0" y="579.0" type="line"/>
      <point x="463.0" y="658.0"/>
      <point x="402.0" y="687.0"/>
      <point x="304.0" y="687.0" type="curve" smooth="yes"/>
      <point x="126.0" y="687.0"/>
      <point x="7.0" y="535.0"/>
      <point x="7.0" y="349.0" type="curve" smooth="yes"/>
      <point x="7.0" y="163.0"/>
      <point x="126.0" y="12.0"/>
    </contour>
    <contour>
      <point x="270.0" y="673.0" type="line"/>
      <point x="355.0" y="673.0" type="line"/>
      <point x="355.0" y="775.0" type="line"/>
      <point x="270.0" y="775.0" type="line"/>
    </contour>
    <contour>
      <point x="270.0" y="-69.0" type="line"/>
      <point x="355.0" y="-69.0" type="line"/>
      <point x="355.0" y="33.0" type="line"/>
      <point x="270.0" y="33.0" type="line"/>
    </contour>
  </outline>
</glyph>
<glyph name="lari.tf" format="2">
  <advance width="596.0"/>
  <outline>
    <contour>
      <point x="474.0" y="397.0" type="curve"/>
      <point x="601.0" y="395.0" type="line"/>
      <point x="578.0" y="570.0"/>
      <point x="475.0" y="683.0"/>
      <point x="312.0" y="683.0" type="curve" smooth="yes"/>
      <point x="144.0" y="683.0"/>
      <point x="22.0" y="547.0"/>
      <point x="22.0" y="359.0" type="curve" smooth="yes"/>
      <point x="22.0" y="287.0"/>
      <point x="54.0" y="207.0"/>
      <point x="106.0" y="155.0" type="curve"/>
      <point x="106.0" y="153.0" type="line"/>
      <point x="10.0" y="153.0" type="line"/>
      <point x="10.0" y="20.0" type="line"/>
      <point x="566.0" y="20.0" type="line"/>
      <point x="566.0" y="153.0" type="line"/>
      <point x="397.0" y="153.0" type="line" smooth="yes"/>
      <point x="225.0" y="153.0"/>
      <point x="147.0" y="223.0"/>
      <point x="147.0" y="359.0" type="curve" smooth="yes"/>
      <point x="147.0" y="503.0"/>
      <point x="201.0" y="569.0"/>
      <point x="312.0" y="569.0" type="curve" smooth="yes"/>
      <point x="404.0" y="569.0"/>
      <point x="455.0" y="514.0"/>
    </contour>
    <contour>
      <point x="326.0" y="775.0" type="line"/>
      <point x="326.0" y="395.0" type="line"/>
      <point x="416.0" y="395.0" type="line"/>
      <point x="416.0" y="775.0" type="line"/>
    </contour>
    <contour>
      <point x="202.0" y="775.0" type="line"/>
      <point x="202.0" y="395.0" type="line"/>
      <point x="292.0" y="395.0" type="line"/>
      <point x="292.0" y="775.0" type="line"/>
    </contour>
  </outline>
</glyph>
<glyph name="micro.ss10" format="2">
  <advance width="605.0"/>
  <outline>
    <contour>
      <point x="70.0" y="-220.0" type="line"/>
      <point x="205.0" y="-220.0" type="line"/>
      <point x="205.0" y="8.0" type="line"/>
      <point x="211.0" y="8.0" type="line"/>
      <point x="241.0" y="-5.0"/>
      <point x="277.0" y="-12.0"/>
      <point x="318.0" y="-12.0" type="curve" smooth="yes"/>
      <point x="460.0" y="-12.0"/>
      <point x="540.0" y="71.0"/>
      <point x="540.0" y="202.0" type="curve" smooth="yes"/>
      <point x="540.0" y="505.0" type="line"/>
      <point x="405.0" y="505.0" type="line"/>
      <point x="405.0" y="235.0" type="line" smooth="yes"/>
      <point x="405.0" y="145.0"/>
      <point x="378.0" y="106.0"/>
      <point x="309.0" y="106.0" type="curve" smooth="yes"/>
      <point x="243.0" y="106.0"/>
      <point x="205.0" y="145.0"/>
      <point x="205.0" y="235.0" type="curve" smooth="yes"/>
      <point x="205.0" y="505.0" type="line"/>
      <point x="70.0" y="505.0" type="line"/>
    </contour>
  </outline>
</glyph>
<glyph name="zero.numr" format="2">
  <advance width="378.0"/>
  <outline>
    <contour>
      <point x="189.0" y="308.0" type="curve" smooth="yes"/>
      <point x="269.0" y="308.0"/>
      <point x="339.0" y="366.0"/>
      <point x="339.0" y="458.0" type="curve" smooth="yes"/>
      <point x="339.0" y="556.0" type="line" smooth="yes"/>
      <point x="339.0" y="648.0"/>
      <point x="269.0" y="706.0"/>
      <point x="189.0" y="706.0" type="curve" smooth="yes"/>
      <point x="104.0" y="706.0"/>
      <point x="39.0" y="640.0"/>
      <point x="39.0" y="556.0" type="curve" smooth="yes"/>
      <point x="39.0" y="458.0" type="line" smooth="yes"/>
      <point x="39.0" y="380.0"/>
      <point x="98.0" y="308.0"/>
    </contour>
    <contour>
      <point x="189.0" y="386.0" type="curve" smooth="yes"/>
      <point x="145.0" y="386.0"/>
      <point x="125.0" y="423.0"/>
      <point x="125.0" y="467.0" type="curve" smooth="yes"/>
      <point x="125.0" y="546.0" type="line" smooth="yes"/>
      <point x="125.0" y="591.0"/>
      <point x="142.0" y="628.0"/>
      <point x="189.0" y="628.0" type="curve" smooth="yes"/>
      <point x="237.0" y="628.0"/>
      <point x="254.0" y="594.0"/>
      <point x="254.0" y="546.0" type="curve" smooth="yes"/>
      <point x="254.0" y="467.0" type="line" smooth="yes"/>
      <point x="254.0" y="422.0"/>
      <point x="234.0" y="386.0"/>
    </contour>
  </outline>
</glyph>
